<?xml version="1.0" standalone="no"?>
<!DOCTYPE svg PUBLIC "-//W3C//DTD SVG 20010904//EN"
 "http://www.w3.org/TR/2001/REC-SVG-20010904/DTD/svg10.dtd">
<svg version="1.0" xmlns="http://www.w3.org/2000/svg"
 width="80.000000pt" height="80.000000pt" viewBox="0 0 80.000000 80.000000"
 preserveAspectRatio="xMidYMid meet">
<metadata>
Created by potrace 1.11, written by Peter Selinger 2001-2013
</metadata>
<g transform="translate(0.000000,80.000000) scale(0.100000,-0.100000)"
fill="#000000" stroke="none">
<path d="M63 727 c-8 -13 -6 -667 2 -675 4 -4 60 -7 126 -7 65 0 119 -4 119
-9 0 -5 6 -4 13 1 6 5 104 9 217 8 l206 -1 -1 337 c0 186 -3 341 -8 345 -10
10 -668 11 -674 1z m439 -89 c4 -11 3 -469 -1 -490 0 -5 -12 -8 -26 -8 -25 0
-25 1 -25 90 0 83 -2 90 -20 90 -15 0 -31 -22 -65 -90 -42 -83 -47 -90 -75
-90 -17 0 -30 2 -30 5 0 3 20 40 45 83 50 86 53 101 26 126 -11 10 -29 37 -39
60 -18 38 -20 55 -10 124 1 6 5 12 10 12 4 0 8 6 8 14 0 31 46 69 91 76 71 12
107 11 111 -2z"/>
<path d="M391 587 c-85 -43 -64 -215 27 -217 22 0 22 2 22 115 0 123 -2 127
-49 102z"/>
</g>
</svg>
